<svg width="20" height="20" viewBox="0 0 20 20" fill="none" xmlns="http://www.w3.org/2000/svg">
<path d="M15 0H5C2.23858 0 0 2.23858 0 5V15C0 17.7614 2.23858 20 5 20H15C17.7614 20 20 17.7614 20 15V5C20 2.23858 17.7614 0 15 0Z" fill="#46435B"/>
<path d="M13.9997 9.36981C14.1231 10.2021 13.981 11.052 13.5935 11.7988C13.206 12.5456 12.5929 13.1512 11.8413 13.5295C11.0898 13.9077 10.2382 14.0394 9.40749 13.9057C8.57683 13.7721 7.80947 13.3799 7.21455 12.785C6.61962 12.1901 6.22744 11.4227 6.09377 10.592C5.96011 9.76137 6.09177 8.90971 6.47003 8.15819C6.84829 7.40667 7.45389 6.79355 8.20069 6.40605C8.94749 6.01856 9.79746 5.8764 10.6297 5.99981C11.4786 6.1257 12.2646 6.52128 12.8714 7.12812C13.4782 7.73496 13.8738 8.52089 13.9997 9.36981Z" fill="#46435B" stroke="#E9E9E9" stroke-width="2" stroke-linecap="round" stroke-linejoin="round"/>
<path d="M15.5 4.5H15.51" stroke="#E9E9E9" stroke-width="2" stroke-linecap="round" stroke-linejoin="round"/>
</svg>
